<?xml version="1.0" encoding="utf-8"?>
<!-- Generator: Adobe Illustrator 24.3.0, SVG Export Plug-In . SVG Version: 6.00 Build 0)  -->
<svg version="1.1" id="Layer_1" xmlns="http://www.w3.org/2000/svg" xmlns:xlink="http://www.w3.org/1999/xlink" x="0px" y="0px"
	 viewBox="0 0 48 48" style="enable-background:new 0 0 48 48;" xml:space="preserve">
<style type="text/css">
	.st0{fill:#FFFFFF;}
</style>
<path class="st0" d="M16.5,5C10.2,5,5,10.2,5,16.5v15C5,37.8,10.2,43,16.5,43h15C37.8,43,43,37.8,43,31.5v-15C43,10.2,37.8,5,31.5,5
	H16.5z M16.5,8h15c4.7,0,8.5,3.8,8.5,8.5v15c0,4.7-3.8,8.5-8.5,8.5h-15C11.8,40,8,36.2,8,31.5v-15C8,11.8,11.8,8,16.5,8z M34,12
	c-1.1,0-2,0.9-2,2s0.9,2,2,2s2-0.9,2-2S35.1,12,34,12z M24,14c-5.5,0-10,4.5-10,10s4.5,10,10,10s10-4.5,10-10S29.5,14,24,14z M24,17
	c3.9,0,7,3.1,7,7s-3.1,7-7,7s-7-3.1-7-7S20.1,17,24,17z"/>
</svg>
