<?xml version="1.0" encoding="utf-8"?>
<!-- Generator: Adobe Illustrator 24.3.0, SVG Export Plug-In . SVG Version: 6.00 Build 0)  -->
<svg version="1.1" id="Layer_1" xmlns="http://www.w3.org/2000/svg" xmlns:xlink="http://www.w3.org/1999/xlink" x="0px" y="0px"
	 viewBox="0 0 48 48" style="enable-background:new 0 0 48 48;" xml:space="preserve">
<style type="text/css">
	.st0{fill:#FFFFFF;}
</style>
<path class="st0" d="M38.4,6.4H9.6c-1.8,0-3.2,1.4-3.2,3.2v28.8c0,1.8,1.4,3.2,3.2,3.2h28.8c1.8,0,3.2-1.4,3.2-3.2V9.6
	C41.6,7.8,40.2,6.4,38.4,6.4z M17.5,35.2h-4.7V20h4.7V35.2z M15.1,17.8c-1.5,0-2.8-1.2-2.8-2.8s1.2-2.8,2.8-2.8
	c1.5,0,2.8,1.2,2.8,2.8C17.9,16.6,16.6,17.8,15.1,17.8z M35.2,35.2h-4.7v-7.4c0-1.8,0-4-2.5-4c-2.5,0-2.8,1.9-2.8,3.9v7.5h-4.7V20
	H25v2.1h0.1c0.6-1.2,2.2-2.5,4.5-2.5c4.8,0,5.7,3.1,5.7,7.2C35.2,26.9,35.2,35.2,35.2,35.2z"/>
</svg>
